<svg xmlns="http://www.w3.org/2000/svg" width="26" height="26" viewBox="0 0 26 26" fill="none">
  <path d="M13.0032 8.26172V12.5761" stroke="#BABEC3" stroke-width="1.5" stroke-linecap="round" stroke-linejoin="round"/>
  <path d="M15.6224 8.96875C16.4892 9.52543 17.1517 10.3487 17.51 11.3146C17.8682 12.2805 17.9029 13.3366 17.6088 14.324C17.3076 15.3117 16.697 16.1766 15.8671 16.7911C15.0372 17.4056 14.0319 17.7374 12.9992 17.7374C11.9665 17.7374 10.9612 17.4056 10.1313 16.7911C9.30138 16.1766 8.69083 15.3117 8.38959 14.324C8.09547 13.3366 8.13016 12.2805 8.48843 11.3146C8.84671 10.3487 9.50916 9.52543 10.376 8.96875" stroke="#BABEC3" stroke-width="1.5" stroke-linecap="round" stroke-linejoin="round"/>
  <path d="M24.5 13C24.5 19.3513 19.3513 24.5 13 24.5C6.64873 24.5 1.5 19.3513 1.5 13C1.5 6.64873 6.64873 1.5 13 1.5C19.3513 1.5 24.5 6.64873 24.5 13Z" stroke="#BABEC3"/>
  <path d="M13 24.4001C19.2961 24.4001 24.4 19.2961 24.4 13.0001C24.4 6.70405 19.2961 1.6001 13 1.6001C6.70396 1.6001 1.60001 6.70405 1.60001 13.0001C1.60001 19.2961 6.70396 24.4001 13 24.4001Z" stroke="#BABEC3" stroke-width="1.5"/>
</svg>
