<svg xmlns="http://www.w3.org/2000/svg" width="26" height="26" viewBox="0 0 26 26" fill="none">
  <path d="M13.0032 8.26172V12.5761" stroke="white" stroke-width="1.5" stroke-linecap="round" stroke-linejoin="round"/>
  <path d="M15.6225 8.96875C16.4893 9.52543 17.1518 10.3487 17.51 11.3146C17.8683 12.2805 17.903 13.3366 17.6089 14.324C17.3076 15.3117 16.6971 16.1766 15.8672 16.7911C15.0373 17.4056 14.0319 17.7374 12.9993 17.7374C11.9666 17.7374 10.9613 17.4056 10.1314 16.7911C9.30147 16.1766 8.69092 15.3117 8.38969 14.324C8.09556 13.3366 8.13025 12.2805 8.48852 11.3146C8.8468 10.3487 9.50925 9.52543 10.3761 8.96875" stroke="white" stroke-width="1.5" stroke-linecap="round" stroke-linejoin="round"/>
  <path d="M24.5 13C24.5 19.3513 19.3513 24.5 13 24.5C6.64873 24.5 1.5 19.3513 1.5 13C1.5 6.64873 6.64873 1.5 13 1.5C19.3513 1.5 24.5 6.64873 24.5 13Z" stroke="white"/>
  <path d="M13.0001 24.4001C19.2961 24.4001 24.4001 19.2961 24.4001 13.0001C24.4001 6.70405 19.2961 1.6001 13.0001 1.6001C6.70405 1.6001 1.6001 6.70405 1.6001 13.0001C1.6001 19.2961 6.70405 24.4001 13.0001 24.4001Z" stroke="white" stroke-width="1.5"/>
</svg>
